<svg width="64" height="64" viewBox="0 0 64 64" fill="none" xmlns="http://www.w3.org/2000/svg">
<path d="M62 32C62 26.6 60.6 21.5 58 17.1L14.7 54.4L14 56C14.1 56.1 14.3 56.2 14.4 56.3L61 39.7C61.7 37.3 62 34.7 62 32Z" fill="#ED4C5C"/>
<path d="M58 17.1C53.6 9.40003 45.9 3.90002 36.8 2.40002L14 56L58 17.1Z" fill="#FCD856"/>
<path d="M32 2C23.8 2 16.4 5.3 11 10.6C5.5 16 2 23.6 2 32C2 41.5 6.4 50 13.4 55.5C13.5 55.6 13.6 55.7 13.8 55.8C13.9 55.9 14 55.9 14.1 56L14.8 54.4L36.9 2.4C35.2 2.1 33.6 2 32 2Z" fill="#2872A0"/>
<path d="M14.3999 56.2999C14.4999 56.2999 14.4999 56.4 14.5999 56.4L54.8999 51.5C57.7999 48.1 59.8999 44.1 61.0999 39.7L14.3999 56.2999Z" fill="white"/>
<path d="M32 62C41.1 62 49.3 57.9 54.8 51.5L14.5 56.4C19.5 59.9 25.5 62 32 62Z" fill="#699635"/>
</svg>
